<?xml version="1.0" encoding="UTF-8" standalone="no"?>
<svg version="1.1" xmlns="http://www.w3.org/2000/svg" xmlns:xlink="http://www.w3.org/1999/xlink">
	<symbol id="chic" viewBox="0 0 332 16">
		<title>Ligne Chic</title>
		<path d="M284,0C280.366,4.732 0,7.672 0,7.672C0,7.672 279.338,11.597 284,16C294.172,9.455 332,7.742 332,7.742C332,7.742 294.214,6.435 284,0Z"/>
	</symbol>

	<symbol id="delice" viewBox="0 0 343 14">
		<title>Ligne Delice</title>
		<g transform="matrix(1,0,0,1,-60,-415)">
			<g transform="matrix(1,0,0,1.16667,20,-93.6667)">
				<path d="M379,442L61.363,442C48.389,442 40,436 40,436C40,436 43.722,448 63,448C80.167,447.978 383,448 383,448C383,448 379,444.757 379,442Z"/>
			</g>
		</g>
	</symbol>

	<symbol id="note" viewBox="0 0 289 11">
		<title>Ligne Note</title>
		<g transform="matrix(1,0,0,1,-925.31,-844.991)">
			<g transform="matrix(1,0,0,1,0,23)">
				<path d="M927,823C924.992,824.666 924.168,827.389 928,828C931.832,828.611 1003.72,832.113 1031,832C1058.29,831.887 1102.78,832.8 1131,832C1158.18,831.229 1202,832 1202,832C1202,832 1217.75,833.645 1213,828C1210.52,825.056 1188,825 1188,825C1188,825 1153.08,824.298 1131,824C1069,823.162 1005,822.207 984,823C963.005,823.793 930.161,820.377 927,823Z"/>
			</g>
		</g>
	</symbol>

	<symbol id="palette" viewBox="0 0 391 13">
		<title>Ligne Palette</title>
		<g transform="matrix(1,0,0,1,-60.9998,-479.856)">
			<g transform="matrix(1,0,0,1,0,40)">
				<path d="M65.589,450.983L79.722,451.941C83.289,452.128 91.515,450.427 98.6,449.782C101.067,449.558 103.362,449.448 105.104,449.769C109.078,450.5 115.872,451.239 123.313,451.453C129.378,451.628 135.87,451.458 141.614,450.683C147.674,449.865 162.465,449.478 177.952,449.641C191.307,449.781 205.178,450.335 214.468,451.419C222.791,452.388 236.514,452.578 251.046,452.353C272.258,452.024 295.21,450.838 305.29,450.081C315.355,449.324 328.614,449.007 341.49,448.985C355.611,448.96 369.27,449.288 377.762,449.787C385.325,450.201 395.101,448.219 410.301,447.563C414.404,447.386 418.914,447.306 423.898,447.411L449.645,448.137C454.075,445.925 434.436,444.735 436.137,444.355C436.933,444.177 453.167,445.177 450.938,442.679C442.973,440.613 424.102,440.589 424.102,440.589C418.956,440.391 414.297,440.388 410.055,440.5C395.197,440.89 385.619,442.737 378.238,442.213C369.641,441.638 355.81,441.19 341.508,441.099C328.423,441.016 314.945,441.234 304.71,441.919C294.717,442.589 271.966,443.574 250.947,443.733C236.873,443.839 223.585,443.583 215.532,442.581C206.009,441.399 191.783,440.713 178.082,440.468C162.02,440.181 146.677,440.515 140.386,441.317C135.121,441.988 129.176,442.084 123.624,441.883C116.786,441.635 110.543,440.93 106.896,440.231C104.449,439.762 101.222,439.767 97.752,440.057C91.189,440.606 83.578,442.257 80.278,442.059L66.411,441.017C63.661,440.79 61.244,442.839 61.017,445.589C60.79,448.339 62.839,450.756 65.589,450.983Z"/>
			</g>
		</g>
	</symbol>
</svg>