<?xml version="1.0" encoding="UTF-8" standalone="no"?>
<!DOCTYPE svg PUBLIC "-//W3C//DTD SVG 1.1//EN" "http://www.w3.org/Graphics/SVG/1.1/DTD/svg11.dtd">
<svg width="100%" height="100%" viewBox="0 0 289 11" version="1.1" xmlns="http://www.w3.org/2000/svg" xmlns:xlink="http://www.w3.org/1999/xlink" xml:space="preserve" xmlns:serif="http://www.serif.com/" style="fill-rule:evenodd;clip-rule:evenodd;stroke-linejoin:round;stroke-miterlimit:2;">
    <g transform="matrix(1,0,0,1,-925.31,-844.991)">
        <g transform="matrix(1,0,0,1,0,23)">
            <path d="M927,823C924.992,824.666 924.168,827.389 928,828C931.832,828.611 1003.72,832.113 1031,832C1058.29,831.887 1102.78,832.8 1131,832C1158.18,831.229 1202,832 1202,832C1202,832 1217.75,833.645 1213,828C1210.52,825.056 1188,825 1188,825C1188,825 1153.08,824.298 1131,824C1069,823.162 1005,822.207 984,823C963.005,823.793 930.161,820.377 927,823Z"/>
        </g>
    </g>
</svg>
