<?xml version="1.0" encoding="UTF-8" standalone="no"?>
<!DOCTYPE svg PUBLIC "-//W3C//DTD SVG 1.1//EN" "http://www.w3.org/Graphics/SVG/1.1/DTD/svg11.dtd">
<svg width="100%" height="100%" viewBox="0 0 391 13" version="1.1" xmlns="http://www.w3.org/2000/svg" xmlns:xlink="http://www.w3.org/1999/xlink" xml:space="preserve" xmlns:serif="http://www.serif.com/" style="fill-rule:evenodd;clip-rule:evenodd;stroke-linejoin:round;stroke-miterlimit:2;">
    <g transform="matrix(1,0,0,1,-60.9998,-479.856)">
        <g transform="matrix(1,0,0,1,0,40)">
            <path d="M65.589,450.983L79.722,451.941C83.289,452.128 91.515,450.427 98.6,449.782C101.067,449.558 103.362,449.448 105.104,449.769C109.078,450.5 115.872,451.239 123.313,451.453C129.378,451.628 135.87,451.458 141.614,450.683C147.674,449.865 162.465,449.478 177.952,449.641C191.307,449.781 205.178,450.335 214.468,451.419C222.791,452.388 236.514,452.578 251.046,452.353C272.258,452.024 295.21,450.838 305.29,450.081C315.355,449.324 328.614,449.007 341.49,448.985C355.611,448.96 369.27,449.288 377.762,449.787C385.325,450.201 395.101,448.219 410.301,447.563C414.404,447.386 418.914,447.306 423.898,447.411L449.645,448.137C454.075,445.925 434.436,444.735 436.137,444.355C436.933,444.177 453.167,445.177 450.938,442.679C442.973,440.613 424.102,440.589 424.102,440.589C418.956,440.391 414.297,440.388 410.055,440.5C395.197,440.89 385.619,442.737 378.238,442.213C369.641,441.638 355.81,441.19 341.508,441.099C328.423,441.016 314.945,441.234 304.71,441.919C294.717,442.589 271.966,443.574 250.947,443.733C236.873,443.839 223.585,443.583 215.532,442.581C206.009,441.399 191.783,440.713 178.082,440.468C162.02,440.181 146.677,440.515 140.386,441.317C135.121,441.988 129.176,442.084 123.624,441.883C116.786,441.635 110.543,440.93 106.896,440.231C104.449,439.762 101.222,439.767 97.752,440.057C91.189,440.606 83.578,442.257 80.278,442.059L66.411,441.017C63.661,440.79 61.244,442.839 61.017,445.589C60.79,448.339 62.839,450.756 65.589,450.983Z"
            transform="translate(100, 0) scale(-1, 1)"/>
        </g>
    </g>
</svg>
