<svg aria-hidden="true" focusable="false" height="40px" width="30px" data-prefix="fas" data-icon="music" class="svg-inline--fa fa-music fa-w-16" role="img" xmlns="http://www.w3.org/2000/svg" viewBox="0 0 512 512">
	<defs>
		<linearGradient id="gradient1" gradientTransform="rotate(75)">
			<stop offset="0%" stop-color="rgb(242, 72, 91)"></stop>
			<stop offset="100%" stop-color="rgb(248, 143, 108)"></stop>
		</linearGradient>
	</defs>
	<path fill="url(#gradient1)" d="M470.38 1.51L150.41 96A32 32 0 0 0 128 126.51v261.41A139 139 0 0 0 96 384c-53 0-96 28.66-96 64s43 64 96 64 96-28.66 96-64V214.32l256-75v184.61a138.4 138.4 0 0 0-32-3.93c-53 0-96 28.66-96 64s43 64 96 64 96-28.65 96-64V32a32 32 0 0 0-41.62-30.49z"></path>
</svg>